<svg width="24" height="24" viewBox="0 0 24 24" fill="none" xmlns="http://www.w3.org/2000/svg">
<path fill-rule="evenodd" clip-rule="evenodd" d="M5.28571 3.99915C4.57563 3.99915 4 4.57478 4 5.28486V10.142C4 10.8521 4.57563 11.4277 5.28571 11.4277H10.1429C10.8529 11.4277 11.4286 10.8521 11.4286 10.142V5.28486C11.4286 4.57478 10.8529 3.99915 10.1429 3.99915H5.28571ZM5.14286 5.28486C5.14286 5.20596 5.20682 5.142 5.28571 5.142H10.1429C10.2218 5.142 10.2857 5.20596 10.2857 5.28486V10.142C10.2857 10.2209 10.2218 10.2849 10.1429 10.2849H5.28571C5.20682 10.2849 5.14286 10.2209 5.14286 10.142V5.28486Z" fill="black"/>
<path fill-rule="evenodd" clip-rule="evenodd" d="M13.8571 3.99915C13.1471 3.99915 12.5714 4.57478 12.5714 5.28486V10.142C12.5714 10.8521 13.1471 11.4277 13.8571 11.4277H18.7143C19.4244 11.4277 20 10.8521 20 10.142V5.28486C20 4.57478 19.4244 3.99915 18.7143 3.99915H13.8571ZM13.7143 5.28486C13.7143 5.20596 13.7782 5.142 13.8571 5.142H18.7143C18.7932 5.142 18.8571 5.20596 18.8571 5.28486V10.142C18.8571 10.2209 18.7932 10.2849 18.7143 10.2849H13.8571C13.7782 10.2849 13.7143 10.2209 13.7143 10.142V5.28486Z" fill="black"/>
<path fill-rule="evenodd" clip-rule="evenodd" d="M4 13.8563C4 13.1462 4.57563 12.5706 5.28571 12.5706H10.1429C10.8529 12.5706 11.4286 13.1462 11.4286 13.8563V18.7134C11.4286 19.4235 10.8529 19.9991 10.1429 19.9991H5.28571C4.57563 19.9991 4 19.4235 4 18.7134V13.8563ZM5.28571 13.7134C5.20682 13.7134 5.14286 13.7774 5.14286 13.8563V18.7134C5.14286 18.7923 5.20682 18.8563 5.28571 18.8563H10.1429C10.2218 18.8563 10.2857 18.7923 10.2857 18.7134V13.8563C10.2857 13.7774 10.2218 13.7134 10.1429 13.7134H5.28571Z" fill="black"/>
<path fill-rule="evenodd" clip-rule="evenodd" d="M13.8571 12.5706C13.1471 12.5706 12.5714 13.1462 12.5714 13.8563V18.7134C12.5714 19.4235 13.1471 19.9991 13.8571 19.9991H18.7143C19.4244 19.9991 20 19.4235 20 18.7134V13.8563C20 13.1462 19.4244 12.5706 18.7143 12.5706H13.8571ZM13.7143 13.8563C13.7143 13.7774 13.7782 13.7134 13.8571 13.7134H18.7143C18.7932 13.7134 18.8571 13.7774 18.8571 13.8563V18.7134C18.8571 18.7923 18.7932 18.8563 18.7143 18.8563H13.8571C13.7782 18.8563 13.7143 18.7923 13.7143 18.7134V13.8563Z" fill="black"/>
</svg>
