<svg width="24" height="24" viewBox="0 0 24 24" fill="none" xmlns="http://www.w3.org/2000/svg">
<path d="M5.23077 6.00012C4.55103 6.00012 4 6.59708 4 7.33346C4 8.06984 4.55103 8.66679 5.23077 8.66679C5.9105 8.66679 6.46154 8.06984 6.46154 7.33346C6.46154 6.59708 5.9105 6.00012 5.23077 6.00012Z" fill="black"/>
<path d="M8.30769 6.66679C7.96782 6.66679 7.69231 6.96527 7.69231 7.33346C7.69231 7.70165 7.96782 8.00012 8.30769 8.00012H19.3846C19.7245 8.00012 20 7.70165 20 7.33346C20 6.96527 19.7245 6.66679 19.3846 6.66679H8.30769Z" fill="black"/>
<path d="M8.30769 11.3335C7.96782 11.3335 7.69231 11.6319 7.69231 12.0001C7.69231 12.3683 7.96782 12.6668 8.30769 12.6668H19.3846C19.7245 12.6668 20 12.3683 20 12.0001C20 11.6319 19.7245 11.3335 19.3846 11.3335H8.30769Z" fill="black"/>
<path d="M7.69231 16.6668C7.69231 16.2986 7.96782 16.0001 8.30769 16.0001H19.3846C19.7245 16.0001 20 16.2986 20 16.6668C20 17.035 19.7245 17.3335 19.3846 17.3335H8.30769C7.96782 17.3335 7.69231 17.035 7.69231 16.6668Z" fill="black"/>
<path d="M4 12.0001C4 11.2637 4.55103 10.6668 5.23077 10.6668C5.9105 10.6668 6.46154 11.2637 6.46154 12.0001C6.46154 12.7365 5.9105 13.3335 5.23077 13.3335C4.55103 13.3335 4 12.7365 4 12.0001Z" fill="black"/>
<path d="M5.23077 15.3335C4.55103 15.3335 4 15.9304 4 16.6668C4 17.4032 4.55103 18.0001 5.23077 18.0001C5.9105 18.0001 6.46154 17.4032 6.46154 16.6668C6.46154 15.9304 5.9105 15.3335 5.23077 15.3335Z" fill="black"/>
</svg>
