<svg width="24" height="24" viewBox="0 0 24 24" fill="none" xmlns="http://www.w3.org/2000/svg">
<path d="M4 7C4 6.44772 4.32561 6 4.72727 6H19.2727C19.6744 6 20 6.44772 20 7C20 7.55228 19.6744 8 19.2727 8H4.72727C4.32561 8 4 7.55228 4 7Z" fill="black"/>
<path d="M4 12C4 11.4477 4.32561 11 4.72727 11H19.2727C19.6744 11 20 11.4477 20 12C20 12.5523 19.6744 13 19.2727 13H4.72727C4.32561 13 4 12.5523 4 12Z" fill="black"/>
<path d="M4.72727 16C4.32561 16 4 16.4477 4 17C4 17.5523 4.32561 18 4.72727 18H19.2727C19.6744 18 20 17.5523 20 17C20 16.4477 19.6744 16 19.2727 16H4.72727Z" fill="black"/>
</svg>
